<svg width="63" height="17" viewBox="0 0 63 17" fill="none" xmlns="http://www.w3.org/2000/svg">
<path d="M29.1481 3.86426C24.6632 6.71349 20.1039 9.43985 15.5427 12.1647C14.5553 12.7546 13.4489 13.6075 12.2832 13.8407" stroke="#363634" stroke-width="2" stroke-linecap="round"/>
<path d="M33.9017 3.62695C30.7691 6.51627 27.2241 9.82952 24.4004 12.6532" stroke="#363634" stroke-width="2" stroke-linecap="round"/>
<path d="M42.6902 2.67627C38.6391 5.85927 34.6988 9.38648 31.2226 13.1937C30.2589 14.2492 31.339 13.3825 31.7636 13.1277" stroke="#363634" stroke-width="2" stroke-linecap="round"/>
<path d="M50.7651 1.01416C46.6652 6.09203 42.0561 10.7289 38.1758 15.9788" stroke="#363634" stroke-width="2" stroke-linecap="round"/>
<path d="M1.73633 11.2614C10.4456 9.83948 19.2388 9.1688 28.0498 8.72771C38.6934 8.19487 49.8403 7.39861 60.4731 8.72771C62.1438 8.93654 60.6884 9.27452 59.9321 9.59866" stroke="#363634" stroke-width="2" stroke-linecap="round"/>
</svg>
