<svg width="49" height="41" viewBox="0 0 49 41" fill="none" xmlns="http://www.w3.org/2000/svg">
<path d="M15.3204 27.0727C11.3085 30.3851 7.24911 33.5741 3.07009 36.669C2.8157 36.8574 1.95775 37.9192 2.01993 37.2048" stroke="#191919" stroke-width="3" stroke-linecap="square"/>
<path d="M21.936 15.1676C23.0174 14.4998 22.4593 10.3202 22.4947 9.36903L23.672 8.133C24.7349 7.22027 25.5218 6.6883 26.8807 6.27254C28.0415 5.91742 29.1993 5.51123 30.469 5.61411C33.8412 5.88736 39.3129 7.31644 40.9502 10.685C42.2916 13.4448 43.578 16.7055 43.8365 19.7724L43.8366 19.774C44.0885 22.7628 44.2229 24.3577 41.7018 26.4033C40.6787 27.2334 40.0715 27.4006 38.8977 27.653C38.3569 27.7693 38.2529 27.8534 37.6774 27.5723C35.4802 26.4991 33.2978 24.8304 30.8566 24.3664C29.4538 24.0997 26.9403 27.1288 25.7546 27.8923C25.0924 28.3187 23.8319 28.9896 23.4385 29.7082C23.0764 30.3696 23.8688 31.4295 23.7608 32.2586C23.6532 33.0848 22.5291 33.9202 22.6787 34.7356C22.7535 35.1436 21.5755 34.3705 21.0548 34.0288L21.0367 34.0169C18.3308 32.2415 15.2108 30.5694 12.8246 28.3905C11.1812 26.8899 8.60649 23.9039 8.37881 21.5962C8.33775 21.18 13.9342 20.6272 14.0892 20.6278C14.8322 20.6307 15.8287 19.1856 16.2998 18.5025L16.3226 18.4694C17.4682 16.8089 20.2645 16.1997 21.936 15.1676Z" fill="white" stroke="#191919" stroke-width="3" stroke-linecap="square"/>
<path d="M22.148 9.33876C22.1126 10.2899 22.6707 14.4695 21.5893 15.1373C19.9179 16.1694 17.1216 16.7786 15.9759 18.4391C15.5149 19.1074 14.4978 20.6004 13.7425 20.5975C13.5875 20.5969 7.99107 21.1497 8.03213 21.5659C8.25981 23.8737 10.8345 26.8597 12.4779 28.3603C14.8642 30.5391 17.9841 32.2112 20.69 33.9867C21.201 34.3219 22.4077 35.1181 22.332 34.7053C22.1824 33.8899 23.3065 33.0545 23.4141 32.2284C23.5221 31.3992 22.7298 30.3393 23.0918 29.6779C23.4852 28.9593 24.7457 28.2884 25.4079 27.862C26.5936 27.0986 29.1071 24.0694 30.5099 24.3361C32.9511 24.8002 35.1336 26.4688 37.3307 27.542C37.9062 27.8231 38.0103 27.739 38.551 27.6227C39.7248 27.3704 40.332 27.2031 41.3551 26.373C43.8767 24.3271 43.7418 22.732 43.4898 19.7422C43.2313 16.6752 41.945 13.4145 40.6036 10.6547C38.9663 7.28617 33.4945 5.85708 30.1223 5.58384C28.8526 5.48096 27.6948 5.88714 26.534 6.24227C25.1751 6.65802 24.3882 7.19 23.3254 8.10273C22.5932 8.73149 22.9586 9.09487 23.483 9.75611C24.991 11.6576 26.3787 13.7064 28.3002 15.2173C31.5083 17.7399 34.8189 21.2021 38.8454 22.3694" stroke="#191919" stroke-width="3" stroke-linecap="square"/>
</svg>
