<svg width="390" height="402" viewBox="0 0 390 402" fill="none" xmlns="http://www.w3.org/2000/svg">
<path d="M66.457 358.03C116.583 348.009 166.733 338.409 217.089 329.628C224.472 328.341 231.989 327.188 239.296 325.435" stroke="black" stroke-width="2" stroke-linecap="round"/>
<path d="M115.777 342.59L252.161 344.734" stroke="black" stroke-width="2" stroke-linecap="round"/>
<path d="M126.5 348.165C146.134 346.6 165.811 345.828 185.495 345.163C194.166 344.87 202.838 344.565 211.514 344.448C638.28 338.726 146.77 344.185 220.854 345.592" stroke="black" stroke-width="2" stroke-linecap="round"/>
<path d="M98.623 347.307C117.586 345.186 137.016 344.246 156.093 344.305C156.719 344.307 160.015 343.931 161.359 344.901C161.808 345.226 160.952 345.486 160.811 345.592" stroke="black" stroke-width="2" stroke-linecap="round"/>
<path d="M77.1797 352.025C123.716 352.025 170.327 351.166 216.852 352.192C225.998 352.394 224.016 352.49 219.068 353.622C214.243 354.725 209.396 355.706 204.557 356.743" stroke="black" stroke-width="2" stroke-linecap="round"/>
<path d="M72.8899 359.745C92.1899 360.087 111.49 360.452 130.789 360.841C141.416 361.056 152.044 361.202 162.669 361.508C169.208 361.697 188.577 361.876 182.207 363.367C177.703 364.421 173.04 364.628 168.435 365.058C146.526 367.108 128.11 367.965 105.699 368.918C93.3049 369.445 80.906 369.867 68.5057 370.229C59.9221 370.479 51.3361 370.675 42.7491 370.753C39.0873 370.786 35.3032 371.506 31.765 370.562C29.4767 369.952 36.4547 369.863 38.8177 369.705C55.7773 368.568 77.8262 368.039 94.0956 367.751C104.562 367.566 115.031 367.404 125.499 367.465C131.364 367.499 137.244 367.491 143.083 368.037C143.954 368.118 146.181 368.993 145.371 369.323C142.345 370.557 138.955 370.58 135.721 371.039C128.571 372.054 118.416 373.111 111.013 373.398C109.82 373.444 106.345 373.662 107.439 373.183C109.614 372.232 112.096 372.252 114.444 371.897C119.024 371.203 123.659 370.875 128.215 370.038" stroke="black" stroke-width="2" stroke-linecap="round"/>
<path d="M49.7305 362.319C106.004 356.415 162.06 350.738 218.638 348.785C241.877 347.983 251.398 348.08 271.938 348.356C274.449 348.39 277.187 347.566 279.468 348.618C280.167 348.941 278.439 349.766 277.895 350.31" stroke="black" stroke-width="2" stroke-linecap="round"/>
<path d="M2.125 375.185C45.2864 369.993 46.9642 369.201 97.2412 366.56C148.692 363.857 212.071 362.282 263.456 362.033C299.56 361.857 326.99 362.402 361.575 364.129C363.281 364.215 375.099 365.321 379.588 365.321C380.14 365.321 379.71 364.905 379.159 364.987C377.71 365.202 376.265 365.495 374.822 365.75" stroke="black" stroke-width="2" stroke-linecap="round"/>
<g filter="url(#filter0_f_449_4641)">
<path d="M343.556 216.75L343.556 216.751C341.158 232.319 336.368 247.523 329.27 261.803C322.171 276.083 312.943 289.08 301.98 300.391L301.979 300.392L301.971 300.401L301.961 300.411C301.961 300.411 301.961 300.411 301.961 300.411C300.836 301.571 299.694 302.713 298.533 303.836C289.467 312.617 279.313 320.288 268.274 326.643C265.634 328.163 262.268 327.119 260.837 324.379L238.114 280.855C236.693 278.135 237.744 274.748 240.42 273.108C255.362 263.949 267.471 250.751 275.311 234.981C283.15 219.21 286.36 201.588 284.641 184.147C284.333 181.025 286.399 178.142 289.424 177.632L337.84 169.47C340.888 168.956 343.753 171.009 344.135 174.032C345.733 186.668 345.748 199.394 344.222 211.923C344.027 213.527 343.806 215.127 343.56 216.724L343.556 216.75Z" fill="white" stroke="white" stroke-width="1.59412"/>
<path d="M328.11 122.568C329.511 125.274 328.318 128.59 325.518 129.898L281.028 150.666C278.247 151.964 274.91 150.763 273.391 148.018C265.94 134.555 255.282 123.135 242.366 114.774C239.731 113.069 238.764 109.657 240.251 106.973L264.037 64.0205L263.552 63.752L264.037 64.0205C265.534 61.3169 268.925 60.3555 271.528 61.9402C295.582 76.5878 315.156 97.5616 328.11 122.568Z" fill="white" stroke="white" stroke-width="1.59412"/>
<path d="M340.893 156.563C341.621 159.522 339.684 162.466 336.655 163.08L288.536 172.839C285.528 173.449 282.566 171.5 281.732 168.475C281.31 166.941 280.848 165.417 280.347 163.905C279.36 160.927 280.742 157.661 283.582 156.498L329.02 137.896C331.881 136.725 335.126 138.098 336.164 140.963C338.015 146.076 339.593 151.283 340.893 156.563Z" fill="white" stroke="white" stroke-width="1.59412"/>
<path d="M255.809 53.5743C258.577 54.8476 259.674 58.1971 258.267 60.9492L235.926 104.671C234.53 107.403 231.16 108.507 228.274 107.274C223.202 105.108 217.949 103.394 212.575 102.153C209.518 101.447 207.447 98.5685 207.93 95.5383L215.667 47.0528C216.154 44.0009 219.015 41.9423 222.002 42.546C233.659 44.9028 245.004 48.6037 255.809 53.5743Z" fill="white" stroke="white" stroke-width="1.59412"/>
<path d="M203.464 39.9602C206.502 40.1968 208.69 42.9598 208.323 46.0285L202.495 94.7803C202.131 97.8271 199.351 100.029 196.218 99.8714C185.82 99.3485 175.393 100.564 165.369 103.481C155.344 106.399 145.894 110.969 137.401 116.989C134.841 118.804 131.314 118.437 129.372 116.062L98.2927 78.0513C96.3365 75.6587 96.7002 72.153 99.1365 70.3233C113.962 59.1885 130.694 50.8149 148.53 45.6238C166.367 40.4328 184.979 38.5202 203.464 39.9602Z" fill="white" stroke="white" stroke-width="1.59412"/>
<path d="M52.9906 260.222L52.9903 260.221C52.2876 258.766 51.6081 257.3 50.9519 255.824C45.8121 244.264 42.1069 232.088 39.9396 219.569C39.4199 216.566 41.558 213.765 44.6224 213.363L93.3058 206.99C96.3484 206.592 99.1678 208.743 99.7878 211.819C102.254 224.055 107.149 235.698 114.206 246.047C122.473 258.17 133.476 268.18 146.325 275.267C159.174 282.354 173.51 286.319 188.175 286.843C200.693 287.291 213.151 285.22 224.817 280.778C227.749 279.661 231.073 280.898 232.359 283.684L252.942 328.261C254.237 331.066 253.008 334.37 250.192 335.532C238.446 340.378 226.172 343.74 213.652 345.56C212.053 345.793 210.451 346 208.846 346.182C208.845 346.182 208.845 346.182 208.845 346.182L208.82 346.185L208.819 346.185C201.274 347.039 193.655 347.336 186.022 347.063C161.914 346.201 138.347 339.681 117.223 328.031C96.0998 316.38 78.0123 299.925 64.4217 279.995C60.1187 273.684 56.3047 267.082 53.002 260.245L52.9956 260.232L52.9906 260.222Z" fill="white" stroke="white" stroke-width="1.59412"/>
<path d="M42.0336 157.008L42.0337 157.007C43.8076 149.706 46.1192 142.524 48.9592 135.521C51.7992 128.517 55.1428 121.753 58.9548 115.279L58.9685 115.256C58.9685 115.256 58.9685 115.255 58.9686 115.255C59.7887 113.863 60.6304 112.484 61.4935 111.119C68.2548 100.425 76.3241 90.5835 85.533 81.8301C87.7413 79.731 91.2588 79.9535 93.2939 82.2794L93.8937 81.7546L93.2939 82.2794L125.625 119.231C127.646 121.54 127.422 125.079 125.208 127.303C116.434 136.114 109.489 146.602 104.8 158.164C100.112 169.727 97.791 182.09 97.9498 194.523C97.9898 197.661 95.6854 200.356 92.627 200.606L43.6911 204.603C40.6108 204.855 37.9317 202.565 37.8091 199.52C37.2976 186.825 38.362 174.143 40.9583 161.76C41.2897 160.18 41.646 158.604 42.0272 157.034C42.0273 157.034 42.0273 157.034 42.0274 157.033L42.0336 157.008Z" fill="white" stroke="white" stroke-width="1.59412"/>
<path d="M42.9344 154.036C41.4644 159.742 40.1951 165.399 39.9492 171.315C39.6942 177.452 40.5247 183.438 41.3568 189.493C41.5126 190.627 41.3463 194.025 41.6238 192.915" stroke="white" stroke-width="0.79706" stroke-linecap="round"/>
<path d="M43.3711 153.599C44.0946 169.53 43.8058 162.984 44.439 177.577C44.6446 182.316 44.7259 187.099 45.2156 191.823C45.2915 192.556 45.5554 194.744 45.5554 194.008" stroke="white" stroke-width="0.79706" stroke-linecap="round"/>
<path d="M45.7734 143.988C46.4181 157.325 47.0624 170.662 47.7514 183.996C47.9081 187.028 48.1417 190.092 48.1761 193.134C48.184 193.835 48.2846 195.28 47.7393 194.008" stroke="white" stroke-width="0.79706" stroke-linecap="round"/>
<path d="M51.6713 143.769C48.8801 156.646 46.0232 169.508 43.6381 182.467C42.9685 186.105 42.4489 189.773 41.7208 193.401C41.5983 194.011 41.497 195.475 41.1019 196.046C40.7556 196.546 41.0004 194.833 40.9684 194.226" stroke="white" stroke-width="0.79706" stroke-linecap="round"/>
<path d="M56.1427 147.831C53.5893 159.377 51.0865 170.937 48.4359 182.461C48.0541 184.122 47.3211 186.141 47.1598 187.916C46.995 189.729 47.1347 191.602 47.1347 193.421C47.1347 194.482 46.3893 198.415 46.6843 197.825" stroke="white" stroke-width="0.79706" stroke-linecap="round"/>
<path d="M66.942 119.066C62.1046 128.362 57.1656 137.619 52.6017 147.055C52.1184 148.054 51.5045 149.317 51.0508 150.419" stroke="white" stroke-width="0.79706" stroke-linecap="round"/>
<path d="M80.0299 93.7562C75.1925 103.052 70.2534 112.309 65.6896 121.745C65.2063 122.744 64.5924 124.007 64.1387 125.109" stroke="white" stroke-width="0.79706" stroke-linecap="round"/>
<path d="M68.8758 124.005L44.8242 159.438" stroke="white" stroke-width="0.79706" stroke-linecap="round"/>
<path d="M81.9617 98.6954L57.9102 134.129" stroke="white" stroke-width="0.79706" stroke-linecap="round"/>
<path d="M66.2979 115.63C59.7328 126.106 53.4832 136.776 47.1855 147.412" stroke="white" stroke-width="0.79706" stroke-linecap="round"/>
<path d="M79.3839 90.3201C72.8187 100.796 66.5691 111.466 60.2715 122.102" stroke="white" stroke-width="0.79706" stroke-linecap="round"/>
<path d="M57.7093 119.066C55.7367 129.587 54.0369 140.165 52.3168 150.729C51.8179 153.793 51.159 156.843 50.9329 159.939C50.9137 160.202 51.1209 159.443 51.2669 159.224" stroke="white" stroke-width="0.79706" stroke-linecap="round"/>
<path d="M65.4847 105.464C63.5121 115.985 61.8122 126.563 60.0922 137.127C59.5933 140.192 58.9344 143.241 58.7083 146.338C58.6891 146.6 58.8963 145.841 59.0423 145.622" stroke="white" stroke-width="0.79706" stroke-linecap="round"/>
<path d="M75.846 95.1025C73.8734 105.623 72.1736 116.202 70.4535 126.766C69.9546 129.83 69.2957 132.88 69.0696 135.976C69.0504 136.238 69.2576 135.479 69.4037 135.26" stroke="white" stroke-width="0.79706" stroke-linecap="round"/>
<path d="M118.238 62.3997C113.483 65.6188 108.576 68.633 103.699 71.6619C95.9913 76.448 104.697 70.6208 105.656 69.9493" stroke="white" stroke-width="1.59412" stroke-linecap="round"/>
<path d="M122.328 60.1976C120.011 61.4308 110.547 66.4768 107.578 68.0268C106.53 68.5742 105.482 69.124 104.415 69.6346C103.142 70.244 103.332 70.0824 104.065 69.4074C106.324 67.3294 108.797 65.6829 111.318 63.9724" stroke="white" stroke-width="1.59412" stroke-linecap="round"/>
<path d="M122.222 58.1722C119.119 61.9736 115.899 65.7233 113.055 69.7285C112.422 70.6206 111.86 71.5228 111.45 72.5344C111.274 72.9692 111.247 73.1368 111.522 72.7246" stroke="white" stroke-width="1.59412" stroke-linecap="round"/>
<path d="M132.496 54.1061C127.249 59.5913 122.005 65.0856 116.861 70.6677C115.981 71.6229 114.579 72.9698 116.231 71.8685" stroke="white" stroke-width="1.59412" stroke-linecap="round"/>
<path d="M141.697 50.4679C134.673 57.6304 127.599 64.7482 120.629 71.9635C117.787 74.9065 119.467 73.1852 120.296 72.7244" stroke="white" stroke-width="1.59412" stroke-linecap="round"/>
<path d="M116.016 78.7167L148.116 47.6859" stroke="white" stroke-width="1.59412" stroke-linecap="round"/>
<path d="M128.85 73.5273L160.95 42.4966" stroke="white" stroke-width="1.59412" stroke-linecap="round"/>
<path d="M117.729 62.0242C133.597 59.9264 149.476 57.5496 165.392 55.818C169.725 55.3467 168.408 55.1002 167.592 56.4601" stroke="white" stroke-width="1.59412" stroke-linecap="round"/>
<path d="M125.434 56.8879C141.485 55.6031 157.54 54.1524 173.609 53.0834C178.114 52.7836 176.804 52.4257 175.939 53.4638" stroke="white" stroke-width="1.59412" stroke-linecap="round"/>
<path d="M136.561 52.394C157.134 50.8986 177.705 49.3696 198.277 47.8643C203.628 47.4727 202.745 47.0954 201.404 47.8999" stroke="white" stroke-width="1.59412" stroke-linecap="round"/>
</g>
<path d="M343.556 216.75L343.556 216.751C341.158 232.319 336.368 247.523 329.27 261.803C322.171 276.083 312.943 289.08 301.98 300.391L301.979 300.392L301.971 300.401L301.961 300.411C301.961 300.411 301.961 300.411 301.961 300.411C300.836 301.571 299.694 302.713 298.533 303.836C289.467 312.617 279.313 320.288 268.274 326.643C265.634 328.163 262.268 327.119 260.837 324.379L238.114 280.855C236.693 278.135 237.744 274.748 240.42 273.108C255.362 263.949 267.471 250.751 275.311 234.981C283.15 219.21 286.36 201.588 284.641 184.147C284.333 181.025 286.399 178.142 289.424 177.632L337.84 169.47C340.888 168.956 343.753 171.009 344.135 174.032C345.733 186.668 345.748 199.394 344.222 211.923C344.027 213.527 343.806 215.127 343.56 216.724L343.556 216.75Z" fill="#C2CF7B" stroke="black" stroke-width="1.59412"/>
<path d="M328.11 122.568C329.511 125.274 328.318 128.59 325.518 129.898L281.028 150.666C278.247 151.964 274.91 150.763 273.391 148.018C265.94 134.555 255.282 123.135 242.366 114.774C239.731 113.069 238.764 109.657 240.251 106.973L264.037 64.0205L263.552 63.752L264.037 64.0205C265.534 61.3169 268.925 60.3555 271.528 61.9402C295.582 76.5878 315.156 97.5616 328.11 122.568Z" fill="#3E3CFF" stroke="black" stroke-width="1.59412"/>
<path d="M340.893 156.563C341.621 159.522 339.684 162.466 336.655 163.08L288.536 172.839C285.528 173.449 282.566 171.5 281.732 168.475C281.31 166.941 280.848 165.417 280.347 163.905C279.36 160.927 280.742 157.661 283.582 156.498L329.02 137.896C331.881 136.725 335.126 138.098 336.164 140.963C338.015 146.076 339.593 151.283 340.893 156.563Z" fill="#CA8807" stroke="black" stroke-width="1.59412"/>
<path d="M255.809 53.5743C258.577 54.8476 259.674 58.1971 258.267 60.9492L235.926 104.671C234.53 107.403 231.16 108.507 228.274 107.274C223.202 105.108 217.949 103.394 212.575 102.153C209.518 101.447 207.447 98.5685 207.93 95.5383L215.667 47.0528C216.154 44.0009 219.015 41.9423 222.002 42.546C233.659 44.9028 245.004 48.6037 255.809 53.5743Z" fill="black" stroke="black" stroke-width="1.59412"/>
<path d="M203.464 39.9602C206.502 40.1968 208.69 42.9598 208.323 46.0285L202.495 94.7803C202.131 97.8271 199.351 100.029 196.218 99.8714C185.82 99.3485 175.393 100.564 165.369 103.481C155.344 106.399 145.894 110.969 137.401 116.989C134.841 118.804 131.314 118.437 129.372 116.062L98.2927 78.0513C96.3365 75.6587 96.7002 72.153 99.1365 70.3233C113.962 59.1885 130.694 50.8149 148.53 45.6238C166.367 40.4328 184.979 38.5202 203.464 39.9602Z" fill="#FF7A00" stroke="black" stroke-width="1.59412"/>
<path d="M52.9906 260.222L52.9903 260.221C52.2876 258.766 51.6081 257.3 50.9519 255.824C45.8121 244.264 42.1069 232.088 39.9396 219.569C39.4199 216.566 41.558 213.765 44.6224 213.363L93.3058 206.99C96.3484 206.592 99.1678 208.743 99.7878 211.819C102.254 224.055 107.149 235.698 114.206 246.047C122.473 258.17 133.476 268.18 146.325 275.267C159.174 282.354 173.51 286.319 188.175 286.843C200.693 287.291 213.151 285.22 224.817 280.778C227.749 279.661 231.073 280.898 232.359 283.684L252.942 328.261C254.237 331.066 253.008 334.37 250.192 335.532C238.446 340.378 226.172 343.74 213.652 345.56C212.053 345.793 210.451 346 208.846 346.182C208.845 346.182 208.845 346.182 208.845 346.182L208.82 346.185L208.819 346.185C201.274 347.039 193.655 347.336 186.022 347.063C161.914 346.201 138.347 339.681 117.223 328.031C96.0998 316.38 78.0123 299.925 64.4217 279.995C60.1187 273.684 56.3047 267.082 53.002 260.245L52.9956 260.232L52.9906 260.222Z" fill="#2D7920" stroke="black" stroke-width="1.59412"/>
<path d="M42.0336 157.008L42.0337 157.007C43.8076 149.706 46.1192 142.524 48.9592 135.521C51.7992 128.517 55.1428 121.753 58.9548 115.279L58.9685 115.256C58.9685 115.256 58.9685 115.255 58.9686 115.255C59.7887 113.863 60.6304 112.484 61.4935 111.119C68.2548 100.425 76.3241 90.5835 85.533 81.8301C87.7413 79.731 91.2588 79.9535 93.2939 82.2794L93.8937 81.7546L93.2939 82.2794L125.625 119.231C127.646 121.54 127.422 125.079 125.208 127.303C116.434 136.114 109.489 146.602 104.8 158.164C100.112 169.727 97.791 182.09 97.9498 194.523C97.9898 197.661 95.6854 200.356 92.627 200.606L43.6911 204.603C40.6108 204.855 37.9317 202.565 37.8091 199.52C37.2976 186.825 38.362 174.143 40.9583 161.76C41.2897 160.18 41.646 158.604 42.0272 157.034C42.0273 157.034 42.0273 157.034 42.0274 157.033L42.0336 157.008Z" fill="#A78977" stroke="black" stroke-width="1.59412"/>
<path d="M42.9344 154.036C41.4644 159.742 40.1951 165.399 39.9492 171.315C39.6942 177.452 40.5247 183.438 41.3568 189.493C41.5126 190.627 41.3463 194.025 41.6238 192.915" stroke="black" stroke-width="0.79706" stroke-linecap="round"/>
<path d="M43.3711 153.599C44.0946 169.53 43.8058 162.984 44.439 177.577C44.6446 182.316 44.7259 187.099 45.2156 191.823C45.2915 192.556 45.5554 194.744 45.5554 194.008" stroke="black" stroke-width="0.79706" stroke-linecap="round"/>
<path d="M45.7734 143.988C46.4181 157.325 47.0624 170.662 47.7514 183.996C47.9081 187.028 48.1417 190.092 48.1761 193.134C48.184 193.835 48.2846 195.28 47.7393 194.008" stroke="black" stroke-width="0.79706" stroke-linecap="round"/>
<path d="M51.6713 143.769C48.8801 156.646 46.0232 169.508 43.6381 182.467C42.9685 186.105 42.4489 189.773 41.7208 193.401C41.5983 194.011 41.497 195.475 41.1019 196.046C40.7556 196.546 41.0004 194.833 40.9684 194.226" stroke="black" stroke-width="0.79706" stroke-linecap="round"/>
<path d="M56.1427 147.831C53.5893 159.377 51.0865 170.937 48.4359 182.461C48.0541 184.122 47.3211 186.141 47.1598 187.916C46.995 189.729 47.1347 191.602 47.1347 193.421C47.1347 194.482 46.3893 198.415 46.6843 197.825" stroke="black" stroke-width="0.79706" stroke-linecap="round"/>
<path d="M66.942 119.066C62.1046 128.362 57.1656 137.619 52.6017 147.055C52.1184 148.054 51.5045 149.317 51.0508 150.419" stroke="black" stroke-width="0.79706" stroke-linecap="round"/>
<path d="M80.0299 93.7562C75.1925 103.052 70.2534 112.309 65.6896 121.745C65.2063 122.744 64.5924 124.007 64.1387 125.109" stroke="black" stroke-width="0.79706" stroke-linecap="round"/>
<path d="M68.8758 124.005L44.8242 159.438" stroke="black" stroke-width="0.79706" stroke-linecap="round"/>
<path d="M81.9617 98.6954L57.9102 134.129" stroke="black" stroke-width="0.79706" stroke-linecap="round"/>
<path d="M66.2979 115.63C59.7328 126.106 53.4832 136.776 47.1855 147.412" stroke="black" stroke-width="0.79706" stroke-linecap="round"/>
<path d="M79.3839 90.3201C72.8187 100.796 66.5691 111.466 60.2715 122.102" stroke="black" stroke-width="0.79706" stroke-linecap="round"/>
<path d="M57.7093 119.066C55.7367 129.587 54.0369 140.165 52.3168 150.729C51.8179 153.793 51.159 156.843 50.9329 159.939C50.9137 160.202 51.1209 159.443 51.2669 159.224" stroke="black" stroke-width="0.79706" stroke-linecap="round"/>
<path d="M65.4847 105.464C63.5121 115.985 61.8122 126.563 60.0922 137.127C59.5933 140.192 58.9344 143.241 58.7083 146.338C58.6891 146.6 58.8963 145.841 59.0423 145.622" stroke="black" stroke-width="0.79706" stroke-linecap="round"/>
<path d="M75.846 95.1025C73.8734 105.623 72.1736 116.202 70.4535 126.766C69.9546 129.83 69.2957 132.88 69.0696 135.976C69.0504 136.238 69.2576 135.479 69.4037 135.26" stroke="black" stroke-width="0.79706" stroke-linecap="round"/>
<path d="M118.238 62.3997C113.483 65.6188 108.576 68.633 103.699 71.6619C95.9913 76.448 104.697 70.6208 105.656 69.9493" stroke="black" stroke-width="1.59412" stroke-linecap="round"/>
<path d="M122.328 60.1976C120.011 61.4308 110.547 66.4768 107.578 68.0268C106.53 68.5742 105.482 69.124 104.415 69.6346C103.142 70.244 103.332 70.0824 104.065 69.4074C106.324 67.3294 108.797 65.6829 111.318 63.9724" stroke="black" stroke-width="1.59412" stroke-linecap="round"/>
<path d="M122.222 58.1722C119.119 61.9736 115.899 65.7233 113.055 69.7285C112.422 70.6206 111.86 71.5228 111.45 72.5344C111.274 72.9692 111.247 73.1368 111.522 72.7246" stroke="black" stroke-width="1.59412" stroke-linecap="round"/>
<path d="M132.496 54.1061C127.249 59.5913 122.005 65.0856 116.861 70.6677C115.981 71.6229 114.579 72.9698 116.231 71.8685" stroke="black" stroke-width="1.59412" stroke-linecap="round"/>
<path d="M141.697 50.4679C134.673 57.6304 127.599 64.7482 120.629 71.9635C117.787 74.9065 119.467 73.1852 120.296 72.7244" stroke="black" stroke-width="1.59412" stroke-linecap="round"/>
<path d="M116.016 78.7167L148.116 47.6859" stroke="black" stroke-width="1.59412" stroke-linecap="round"/>
<path d="M128.85 73.5273L160.95 42.4966" stroke="black" stroke-width="1.59412" stroke-linecap="round"/>
<path d="M117.729 62.0242C133.597 59.9264 149.476 57.5496 165.392 55.818C169.725 55.3467 168.408 55.1002 167.592 56.4601" stroke="black" stroke-width="1.59412" stroke-linecap="round"/>
<path d="M125.434 56.8879C141.485 55.6031 157.54 54.1524 173.609 53.0834C178.114 52.7836 176.804 52.4257 175.939 53.4638" stroke="black" stroke-width="1.59412" stroke-linecap="round"/>
<path d="M136.561 52.394C157.134 50.8986 177.705 49.3696 198.277 47.8643C203.628 47.4727 202.745 47.0954 201.404 47.8999" stroke="black" stroke-width="1.59412" stroke-linecap="round"/>
<defs>
<filter id="filter0_f_449_4641" x="-1.11328" y="0.698486" width="385.26" height="385.26" filterUnits="userSpaceOnUse" color-interpolation-filters="sRGB">
<feFlood flood-opacity="0" result="BackgroundImageFix"/>
<feBlend mode="normal" in="SourceGraphic" in2="BackgroundImageFix" result="shape"/>
<feGaussianBlur stdDeviation="19" result="effect1_foregroundBlur_449_4641"/>
</filter>
</defs>
</svg>
