<svg width="388" height="53" viewBox="0 0 388 53" fill="none" xmlns="http://www.w3.org/2000/svg">
<path d="M65.7695 34.3523C115.896 24.332 166.045 14.7318 216.402 5.95082C223.784 4.66353 231.301 3.51109 238.608 1.75732" stroke="black" stroke-width="2" stroke-linecap="round"/>
<path d="M115.091 18.9126L251.475 21.057" stroke="black" stroke-width="2" stroke-linecap="round"/>
<path d="M125.812 24.4882C145.447 22.9231 165.123 22.1512 184.807 21.486C193.479 21.193 202.151 20.8876 210.826 20.7712C637.592 15.0483 146.083 20.5082 220.166 21.9149" stroke="black" stroke-width="2" stroke-linecap="round"/>
<path d="M97.9355 23.6301C116.899 21.5083 136.329 20.5692 155.406 20.6279C156.032 20.6298 159.328 20.2534 160.671 21.2236C161.121 21.5483 160.265 21.8084 160.123 21.9146" stroke="black" stroke-width="2" stroke-linecap="round"/>
<path d="M76.4912 28.348C123.027 28.348 169.638 27.489 216.163 28.5148C225.31 28.7164 223.328 28.8125 218.379 29.9444C213.554 31.048 208.708 32.0288 203.869 33.0657" stroke="black" stroke-width="2" stroke-linecap="round"/>
<path d="M72.2024 36.0679C91.5024 36.4101 110.802 36.7745 130.101 37.1639C140.728 37.3783 151.357 37.5246 161.981 37.831C168.521 38.0197 187.889 38.199 181.519 39.6895C177.016 40.7433 172.352 40.9505 167.747 41.3812C145.838 43.4303 127.423 44.2881 105.012 45.2412C92.6174 45.7682 80.2185 46.1902 67.8182 46.5516C59.2346 46.8018 50.6486 46.9978 42.0616 47.0758C38.3998 47.1091 34.6157 47.8287 31.0775 46.8852C28.7892 46.275 35.7672 46.1857 38.1302 46.0274C55.0898 44.8913 77.1387 44.3618 93.4081 44.0736C103.875 43.8883 114.344 43.7266 124.812 43.7877C130.676 43.822 136.557 43.8135 142.396 44.3596C143.267 44.441 145.493 45.3159 144.683 45.6462C141.658 46.8798 138.268 46.9025 135.033 47.3617C127.883 48.3769 117.729 49.434 110.325 49.7206C109.133 49.7667 105.658 49.9845 106.751 49.5061C108.926 48.5546 111.409 48.5748 113.756 48.2195C118.336 47.5262 122.972 47.1978 127.528 46.361" stroke="black" stroke-width="2" stroke-linecap="round"/>
<path d="M49.043 38.6412C105.317 32.7371 161.372 27.0608 217.95 25.1076C241.189 24.3054 250.711 24.4022 271.251 24.6787C273.762 24.7125 276.5 23.8885 278.78 24.9408C279.479 25.2635 277.752 26.0881 277.207 26.6325" stroke="black" stroke-width="2" stroke-linecap="round"/>
<path d="M1.4375 51.5078C44.5989 46.3161 46.2767 45.5233 96.5537 42.8825C148.004 40.1801 211.384 38.6049 262.769 38.3554C298.873 38.1802 326.302 38.7246 360.887 40.4522C362.594 40.5374 374.412 41.6435 378.9 41.6435C379.453 41.6435 379.023 41.2282 378.471 41.3099C377.022 41.5246 375.577 41.8178 374.135 42.0724" stroke="black" stroke-width="2" stroke-linecap="round"/>
</svg>
