<svg width="103" height="476" viewBox="0 0 103 476" fill="none" xmlns="http://www.w3.org/2000/svg">
<path d="M30.4789 465.216L9.5888 462.671L61.3653 37.7004L99.4705 55.4022L30.4789 465.216Z" fill="#545458" stroke="black" stroke-width="2"/>
<path d="M22.7406 456.216L1.85052 453.671L53.6271 28.7004L91.7322 46.4022L22.7406 456.216Z" fill="#545458" stroke="black" stroke-width="2"/>
<path d="M39.5362 473.692L18.5081 472.97L34.6851 1.66634L74.1423 17.3042L39.5362 473.692Z" fill="#545458" stroke="black" stroke-width="2"/>
<path d="M62.9961 26.4946C65.4093 43.4421 66.6267 60.7199 70.1562 77.4848C70.5243 79.2333 70.8211 80.9165 70.8211 78.5077" stroke="black" stroke-width="2" stroke-linecap="round"/>
<path d="M58.4746 53.2139C60.8878 70.1613 62.1053 87.4391 65.6347 104.204C66.0028 105.953 66.2996 107.636 66.2996 105.227" stroke="black" stroke-width="2" stroke-linecap="round"/>
<path d="M58.4746 80.2139C60.8878 97.1613 62.1053 114.439 65.6347 131.204C66.0028 132.953 66.2996 134.636 66.2996 132.227" stroke="black" stroke-width="2" stroke-linecap="round"/>
<path d="M56.1152 112.477C57.7462 128.088 59.6511 143.779 60.8103 159.428C60.8568 160.055 60.5326 157.172 60.5054 156.928" stroke="black" stroke-width="2" stroke-linecap="round"/>
<path d="M56.6641 142.66C56.7469 156.899 56.8231 171.425 58.4323 185.586C58.5362 186.5 60.144 194.923 57.7616 190.952" stroke="black" stroke-width="2" stroke-linecap="round"/>
<path d="M70.9318 43.8799C65.2541 68.051 62.9486 92.4853 61.1453 117.233C58.9297 147.641 59.1261 178.526 54.9563 208.757C54.6168 211.218 54.6866 216.986 53.1271 219.214C53.0402 219.338 52.3291 216.474 52.2734 216.196" stroke="black" stroke-width="2" stroke-linecap="round"/>
</svg>
