<svg width="46" height="99" viewBox="0 0 46 99" fill="none" xmlns="http://www.w3.org/2000/svg">
<path d="M43.778 29.4591C43.3198 21.6692 41.9511 16.7845 43.1044 9L42.1044 3C37.9603 0.927962 31.9937 2.53248 27.3282 2.53248C21.4932 2.53248 19.399 2.90909 13.6164 2.07555C11.8191 1.81648 8.61636 -0.467486 4.61636 2.5325C1.61636 4.0325 2.74054 6.70331 2.42514 8.72189C1.74086 13.1013 3.0781 17.2744 2.42514 21.6586C1.56718 27.4192 2.05466 37.2576 2.42514 42.222C3.69284 59.2092 0.363445 75.7317 3.60437 92.5C4.57946 97.545 10.6604 97.1185 14.6044 97.1185C18.0852 97.1185 20.1368 97.0919 23.6044 97.1185C27.4134 97.1478 30.6169 97.1185 36.1169 97.1185C40.6169 97.1185 38.9553 97.264 40.6044 96.531C44.7247 94.6998 44.1401 80.8322 43.8106 77.7313C42.6071 66.4043 44.1044 56.5985 44.1044 45.222C44.1044 40.6114 44.046 34.0149 43.778 29.4591Z" fill="#D9D9D9" stroke="#171D23" stroke-width="2" stroke-linecap="round"/>
<path d="M20.8835 38.7219C23.224 40.5725 31.0764 45.038 28.3118 48.2491C26.1339 50.7787 23.7378 53.3217 21.0269 55.2851C20.2654 55.8367 20.646 55.7558 21.3214 55.8825" stroke="#171D23" stroke-width="4" stroke-linecap="round"/>
</svg>
