<svg width="45" height="99" viewBox="0 0 45 99" fill="none" xmlns="http://www.w3.org/2000/svg">
<path d="M2.12607 29.4591C2.5843 21.6692 3.95294 16.7845 2.79968 9L3.79968 3C7.94376 0.927962 13.9104 2.53248 18.5758 2.53248C24.4108 2.53248 26.505 2.90909 32.2877 2.07555C34.085 1.81648 37.2877 -0.467486 41.2877 2.5325C44.2877 4.0325 43.1635 6.70331 43.4789 8.72189C44.1632 13.1013 42.826 17.2744 43.4789 21.6586C44.3369 27.4192 43.8494 37.2576 43.4789 42.222C42.2112 59.2092 45.5406 75.7317 42.2997 92.5C41.3246 97.545 35.2437 97.1185 31.2997 97.1185C27.8188 97.1185 25.7673 97.0919 22.2997 97.1185C18.4907 97.1478 15.2872 97.1185 9.78719 97.1185C5.28719 97.1185 6.94877 97.264 5.29968 96.531C1.17933 94.6998 1.76396 80.8322 2.09343 77.7313C3.29692 66.4043 1.79968 56.5985 1.79968 45.222C1.79968 40.6114 1.85808 34.0149 2.12607 29.4591Z" fill="#D9D9D9" stroke="#171D23" stroke-width="2" stroke-linecap="round"/>
<path d="M25.0205 38.7219C22.6801 40.5725 14.8276 45.038 17.5923 48.2491C19.7702 50.7787 22.1663 53.3217 24.8771 55.2851C25.6387 55.8367 25.258 55.7558 24.5827 55.8825" stroke="#171D23" stroke-width="4" stroke-linecap="round"/>
</svg>
