<svg width="39" height="28" viewBox="0 0 39 28" fill="none" xmlns="http://www.w3.org/2000/svg">
<path d="M31.65 7C29.8307 7 28.0108 6.99893 26.1952 7.15962C25.318 7.23726 24.3071 7.15342 23.4532 7.44339C21.7596 8.01853 20.2277 10.1856 19.1445 11.7531C16.862 15.056 16.4236 20.1536 13.472 22.8379C11.1305 24.9673 8.39293 24.5081 5.69593 24.842C4.90524 24.9399 4.13399 24.7179 3.3457 24.7179C2.81843 24.7179 2.59585 24.8076 2.79442 24.0794" stroke="#171D23" stroke-width="4.25403" stroke-linecap="round"/>
<path d="M28.2468 2.74597C30.1705 4.28615 32.0584 6.10458 34.088 7.38842C34.3442 7.55042 34.1075 7.70162 33.9848 7.76758C33.0295 8.28121 32.0887 8.94987 31.1365 9.49694C30.7242 9.7338 30.3534 9.90127 30.1044 10.4032" stroke="#171D23" stroke-width="4.25403" stroke-linecap="round"/>
<path d="M20.5895 18.0605C22.6979 19.7238 24.6042 21.4638 26.9464 21.4638C28.0656 21.4638 29.1848 21.4638 30.304 21.4638C30.6606 21.4638 31.496 21.3233 31.65 20.8257" stroke="#171D23" stroke-width="4.25403" stroke-linecap="round"/>
<path d="M29.9484 15.5081C31.3278 16.6756 32.5633 17.4574 34.1068 18.101C34.2675 18.168 35.8703 18.5469 35.9005 18.6952C35.9731 19.0523 34.9162 20.1061 34.8323 20.2077C33.8654 21.3795 32.8527 22.4802 31.8832 23.647C31.414 24.2116 30.7594 24.888 30.553 25.7177" stroke="#171D23" stroke-width="4.25403" stroke-linecap="round"/>
<path d="M13.7831 12.9556C13.1584 12.3432 12.4655 11.846 11.8373 11.2156C11.4033 10.78 10.9159 10.0849 10.4229 9.7627C9.6992 9.28968 9.51206 8.65885 9.00133 8.02264C7.71731 6.42315 5.22682 7.17794 3.57339 7.17794" stroke="#171D23" stroke-width="4.25403" stroke-linecap="round"/>
</svg>
