<svg width="31" height="29" viewBox="0 0 31 29" fill="none" xmlns="http://www.w3.org/2000/svg">
<path d="M20.7588 21.8636C20.1549 24.2168 18.3081 26.3381 15.6439 26.3381C12.684 26.3381 10.6697 25.1379 8.82399 23.0328C7.57843 21.6123 7.06056 20.3581 6.99308 18.4662C6.93829 16.9303 6.63464 15.446 6.63464 13.9088" stroke="black" stroke-width="3.40323" stroke-linecap="round"/>
<path d="M2.11475 17.2985C2.98289 15.4313 3.74747 12.6393 5.95505 11.6453C6.60207 11.3539 7.87137 10.8276 8.59526 11.2296C9.64989 11.8153 10.183 13.7485 10.5893 14.7546" stroke="black" stroke-width="3.40323" stroke-linecap="round"/>
<path d="M11.6049 2.56352C14.8238 2.02939 18.2214 0.819267 21.0661 2.85835C22.4821 3.87339 23.8856 5.42257 24.4967 7.09309C24.7218 7.70833 25.5811 12.6047 23.9071 11.4886" stroke="black" stroke-width="3.40323" stroke-linecap="round"/>
<path d="M19.8055 10.5238C21.4785 12.7327 22.7731 15.153 25.7824 13.8741C26.7146 13.4779 27.5287 12.9693 28.4894 12.6948" stroke="black" stroke-width="3.40323" stroke-linecap="round"/>
</svg>
