<svg width="181" height="80" viewBox="0 0 181 80" fill="none" xmlns="http://www.w3.org/2000/svg">
<path d="M131.175 12.1699C106.141 32.9297 81.3845 54.0798 54.5182 72.4748C49.2526 76.0801 52.719 74.0447 55.8264 72.8018" stroke="black" stroke-width="2" stroke-linecap="round"/>
<path d="M145.302 23.3535C136.176 25.6851 127.693 29.3085 118.943 32.7721C102.24 39.3837 85.301 45.1197 68.2532 50.7589C64.7515 51.9172 54.3522 54.2385 57.9843 54.8795C58.7652 55.0173 59.8557 54.255 60.5352 53.9638" stroke="black" stroke-width="2" stroke-linecap="round"/>
<path d="M148.835 36.3047C125.969 40.4743 103.264 45.9533 80.681 51.4136C69.7648 54.053 58.7641 56.4588 48.5009 61.0938C45.6674 62.3734 45.7919 63.0462 48.1739 61.617" stroke="black" stroke-width="2" stroke-linecap="round"/>
<path d="M179.444 35.127C125.934 49.1268 71.5557 58.89 17.3016 69.4C12.1854 70.3911 6.54051 71.3167 1.66945 73.4552C0.100835 74.1439 3.31779 72.8534 3.43543 72.8011" stroke="black" stroke-width="2" stroke-linecap="round"/>
<path d="M132.941 24.5312C125.157 34.5039 117.267 43.536 107.792 51.9693C100.28 58.655 91.1257 64.4939 84.7033 72.3434C79.8114 78.3224 93.0452 69.9653 94.0891 69.2693" stroke="black" stroke-width="2" stroke-linecap="round"/>
<path d="M158.842 1.57422C150.929 12.3647 142.437 22.6872 133.268 32.4461C124.341 41.9479 119.073 46.7379 109.722 55.3384C104.431 60.2046 98.5497 64.7542 94.5145 70.8071C92.8496 73.3044 91.895 75.9703 90.6555 78.6559C90.114 79.8291 91.7046 76.291 92.3234 75.1566" stroke="black" stroke-width="2" stroke-linecap="round"/>
</svg>
